<?xml version="1.0" standalone="no"?>
<!DOCTYPE svg PUBLIC "-//W3C//DTD SVG 20010904//EN"
 "http://www.w3.org/TR/2001/REC-SVG-20010904/DTD/svg10.dtd">
<svg version="1.0" xmlns="http://www.w3.org/2000/svg"
 width="700.000000pt" height="700.000000pt" viewBox="0 0 700.000000 700.000000"
 preserveAspectRatio="xMidYMid meet">
<metadata>
Created by potrace 1.11, written by Peter Selinger 2001-2013
</metadata>
<g transform="translate(0.000000,700.000000) scale(0.100000,-0.100000)"
fill="#000000" stroke="none">
<path d="M3413 6384 c-146 -38 -268 -152 -319 -299 -11 -33 -14 -47 -18 -115
-7 -119 35 -228 124 -320 79 -82 160 -125 255 -136 22 -3 49 -6 60 -8 11 -2
49 0 85 5 129 18 272 114 334 225 72 129 73 297 3 429 -23 43 -115 141 -159
168 -92 58 -253 80 -365 51z"/>
<path d="M948 5418 c4 -3 108 -38 232 -78 124 -39 257 -82 295 -95 39 -12 165
-53 280 -90 116 -37 278 -89 360 -115 83 -27 209 -67 280 -90 210 -68 440
-142 442 -144 1 -1 9 -49 18 -107 9 -57 18 -117 21 -134 3 -16 7 -43 9 -58 2
-16 6 -40 9 -55 5 -24 10 -56 21 -137 2 -11 8 -51 15 -90 6 -38 13 -81 15 -95
2 -14 10 -68 19 -120 8 -52 17 -111 20 -130 3 -19 15 -93 26 -165 12 -71 23
-141 25 -155 4 -31 43 -275 49 -310 6 -35 16 -99 22 -139 2 -19 7 -48 10 -65
4 -24 56 -347 79 -496 2 -14 11 -68 19 -120 16 -100 65 -407 71 -450 6 -44 16
-104 25 -160 5 -30 12 -73 15 -95 3 -22 10 -65 15 -95 5 -30 11 -68 14 -85 6
-38 49 -312 82 -515 28 -173 30 -188 39 -245 3 -23 7 -50 9 -60 2 -11 7 -44
11 -73 4 -29 9 -52 10 -50 5 5 12 45 30 163 9 55 17 107 20 115 2 8 7 39 10
69 4 30 9 63 11 75 8 41 14 73 18 107 7 49 15 103 31 199 8 47 17 103 20 125
3 22 8 51 10 65 3 14 7 43 11 65 3 22 14 92 24 155 10 63 21 133 24 155 4 22
8 51 11 65 2 14 7 43 10 65 3 22 7 51 10 65 2 14 11 70 20 125 8 55 20 125 25
155 5 30 12 73 15 95 10 69 15 99 20 125 2 14 7 43 10 65 6 47 45 291 51 320
2 10 6 37 9 60 5 35 28 178 41 255 5 30 35 227 39 255 7 51 47 295 56 340 5
28 11 68 14 90 4 35 12 90 20 135 1 8 6 35 10 60 4 25 9 52 10 60 1 8 6 40 10
70 4 30 9 64 11 75 2 11 14 79 25 150 19 117 25 156 34 220 2 11 4 30 4 42 1
20 27 30 269 108 147 48 328 106 402 130 74 24 257 83 405 130 149 48 338 109
420 135 83 27 205 66 272 87 68 21 123 40 123 43 0 3 -1152 5 -2559 5 -1408 0
-2557 -3 -2553 -7z"/>
</g>
</svg>
